<svg xmlns="http://www.w3.org/2000/svg" version="1.1" xmlns:xlink="http://www.w3.org/1999/xlink" xmlns:svgjs="http://svgjs.dev/svgjs" width="271" height="305" viewBox="0 0 2000 2250"><g transform="matrix(1,0,0,1,3.410605131648481e-13,0)"><svg viewBox="0 0 320 360" data-background-color="#0f0f5c" preserveAspectRatio="xMidYMid meet" height="2250" width="2000" xmlns="http://www.w3.org/2000/svg" xmlns:xlink="http://www.w3.org/1999/xlink"><g id="tight-bounds" transform="matrix(1,0,0,1,0,0)"><svg viewBox="0 0 320 360" height="360" width="320"><g><svg></svg></g><g><svg viewBox="0 0 320 360" height="360" width="320"><g><path d="M20.961 227.22l3.726 4.658-1.863-6.056c-0.466-2.795-3.726 0.466-1.863 1.398M25.153 224.425c1.397 2.329 2.795 4.658 2.795 6.987 0 3.261 2.795 4.658 5.123 5.589-3.261-3.726-5.124-13.974-7.918-12.576M204.017 26.929c7.918 0 15.371-0.932 23.756 0.931 20.495 5.124 37.729 15.371 49.374 29.811l32.606 52.169c1.397 13.042 4.192 27.482 3.726 43.319 3.261 0 2.795-4.658 6.521-5.59-3.726 9.316-5.59 20.961-6.521 34.469-2.329-7.453 0-18.632 0.466-24.687-3.261 5.124-5.124 1.397-5.124-0.932 0.466-3.726-1.397-3.261-2.795-4.658-5.124-4.658-8.384-9.782-12.11-17.7 2.329-6.055 2.795-14.905-4.658-19.563-2.329-1.397-5.124-3.726-6.521-7.453-1.863-5.124-5.124-11.179-4.193-19.097 0.466-2.329-6.987 5.124-11.179 1.863-18.166-12.576-36.332-27.016-58.224-39.127-11.645 0-20.029-4.192-24.221-9.316-3.726-4.658-0.932-10.713 4.658-11.179 3.261 0 6.987-0.932 9.782 0.932 0.466-1.863 2.329-4.192 4.657-4.192M157.904 16.215l0.932 0.466c4.658 0.932 6.987 7.453 12.11 5.124 0 3.261 0.466 6.521-0.466 8.85-1.397 3.726-5.59 3.726-8.85 3.726-31.208-1.863-49.374 11.179-68.471 22.358-5.124 3.261-10.713 5.59-14.906 9.782-20.029 18.632-41.921 35.866-47.045 70.335l-4.192 38.195c-0.466 4.192-5.124 8.384-4.192 13.508l3.26 22.824c-3.261-3.261-5.124 0.932-4.192 2.795 0.466 1.397 2.329 6.055 5.124 1.863 3.726 6.987 7.453 20.495 12.576 26.55 15.837 18.632 36.332 35.4 53.101 52.169 4.192-0.932 7.453-0.932 8.384-3.727 1.397 2.795-1.397 5.59-3.726 6.056 7.453 4.658 15.837 8.85 27.016 9.781 14.44 0.932 27.948 3.261 40.524 6.522 6.521-1.863 13.042-2.795 20.029-3.261 2.329 0 3.726-3.726 6.521-4.658l0.466-4.658c2.795 4.192 2.329-1.397 0.466-4.192 3.261 2.795 4.192 5.124 5.589 6.987 0-1.397 3.726-6.521 3.727-0.466l0.931-6.055c1.397-0.932 1.863 5.124 3.261 0.931 1.397-4.192 4.192-0.932 6.987-2.329-0.932 1.863-0.466 5.59 2.794 3.261l3.727-3.261c2.329 5.59 6.055 3.261 7.918 2.329 20.495-13.042 40.99-28.413 60.553-43.784l-0.466 6.055 2.329-7.453c2.329 2.329 4.192 0.466 5.124-0.931 2.795-4.658 6.521-9.316 12.577-13.508-7.453 20.029-16.303 35.866-27.482 48.908l-4.658 5.59c0 3.261-0.932 7.453-4.658 7.918-1.863 0.466-5.59-0.932-8.384 1.863-1.397 1.863 3.261 5.59-0.466 2.795-3.261-2.329-6.521 0-10.248 0.932-2.795 0.932 1.863 3.726 2.795 5.589 0.932 1.863 1.863 3.726 1.398 6.056l-5.124-5.59c-6.055 3.261-9.782 9.316-14.906 13.974-2.329 1.863-1.397 5.124-1.397 7.918-3.261 0-6.987-0.932-8.85 0.932-1.397 1.863-0.932 4.658-0.932 7.453-4.658-0.466-5.124-7.453-9.315-6.056-4.192 0.932-8.85 1.397-12.577 3.727 2.795 5.59-4.658 2.329-3.726 3.26-6.987-4.192-13.042-7.453-20.495-4.658-15.837-5.124-35.4-2.795-49.84-0.931 0-2.329 0.466-4.658-0.466-5.124-0.932 2.329-3.726 1.397-3.26 1.397-8.85-6.055-17.7-9.782-27.016-14.905-8.384 0.932-16.303-3.261-18.632-5.59-6.521-6.055-13.974-2.795-20.029-4.192-13.042-3.261-17.7-16.769-19.098-26.084-0.932-4.658-4.658-6.521-6.055-6.056-6.055-19.563-15.371-37.263-22.824-55.429-1.863-4.658-1.397-9.316-1.397-14.44 2.329 0.932 4.658 0.466 4.192-2.794-2.329-15.371-7.918-27.016-13.974-38.195 3.261-15.837 3.726-34.469 11.179-48.443 6.521-12.576 18.632-19.098 27.016-29.811 2.795-3.726 2.795-8.85 5.59-12.11 9.316-9.316 18.632-19.098 28.879-27.482 4.658-3.726 10.247 0 17.234-1.397 2.329-8.384 11.645-15.837 20.495-13.508 3.726 0.932 11.179-8.85 13.508-9.782 3.726-1.397 1.863 3.726 1.863 6.987 8.85-6.987 20.961-10.713 32.14-14.906" fill="#7b408f" fill-rule="nonzero" stroke="none" stroke-width="1" stroke-linecap="butt" stroke-linejoin="miter" stroke-miterlimit="10" stroke-dasharray="" stroke-dashoffset="0" font-family="none" font-weight="none" font-size="none" text-anchor="none" style="mix-blend-mode: normal" data-fill-palette-color="tertiary"></path></g><g transform="matrix(1,0,0,1,91.93332868593048,90)"><svg viewBox="0 0 136.13334262813905 180" height="180" width="136.13334262813905"><g><svg viewBox="0 0 136.13334262813905 180" height="180" width="136.13334262813905"><g><svg viewBox="0 0 163.91258351719665 216.73062942183867" height="180" width="136.13334262813905"><g><svg viewBox="0 0 163.91258351719665 216.73062942183867" height="216.73062942183867" width="163.91258351719665"><g id="textblocktransform"><svg viewBox="0 0 163.91258351719665 216.73062942183867" height="216.73062942183867" width="163.91258351719665" id="textblock"><g><svg viewBox="0 0 163.91258351719665 178.88760000000002" height="178.88760000000002" width="163.91258351719665"><g transform="matrix(1,0,0,1,0,0)"><svg width="163.91258351719665" viewBox="1.98 -35.94 34.470000000000006 37.62" height="178.88760000000002" data-palette-color="#7983c2"><path d="M26-32.15L26-32.15Q26-33.03 26.16-33.36 26.32-33.69 26.81-33.81L26.81-33.81 35.21-35.84Q35.52-35.94 35.86-35.94L35.86-35.94Q36.21-35.94 36.33-35.73 36.45-35.52 36.45-34.89L36.45-34.89 36.16-31.05Q36.04-29.37 35.89-27.71 35.74-26.05 35.45-24.8L35.45-24.8 35.01-21.34Q34.81-19.8 34.64-18.01 34.47-16.21 34.28-13.99L34.28-13.99 33.13-1.95Q33.11-1.73 33.03-1.51 32.96-1.29 32.71-1.2L32.71-1.2Q32.54-1.12 31.92-0.88 31.3-0.63 30.44-0.32 29.59 0 28.61 0.35 27.64 0.71 26.76 1 25.88 1.29 25.2 1.49 24.51 1.68 24.27 1.68L24.27 1.68Q23.93 1.68 23.67 1.5 23.41 1.32 23.41 0.81L23.41 0.81Q23.41-2.15 23.75-5.24 24.1-8.33 24.37-11.38L24.37-11.38Q24.41-11.72 24.4-12.01 24.39-12.3 24.44-12.65L24.44-12.65 15.5-12.65 14.5-1.95Q14.48-1.73 14.42-1.53 14.36-1.32 14.09-1.2L14.09-1.2Q13.99-1.15 13.12-0.84 12.26-0.54 11.12-0.13 9.99 0.27 8.87 0.67 7.76 1.07 7.18 1.29L7.18 1.29Q6.88 1.42 6.46 1.55 6.03 1.68 5.62 1.68L5.62 1.68Q5.27 1.68 5.02 1.49 4.76 1.29 4.76 0.78L4.76 0.78Q4.76-0.39 4.85-1.89 4.93-3.39 5.05-5.04 5.18-6.69 5.35-8.42 5.52-10.16 5.69-11.84L5.69-11.84 5.74-12.55Q3.76-12.55 2.87-12.66 1.98-12.77 1.98-13.23L1.98-13.23Q1.98-13.55 2.34-14.06L2.34-14.06Q2.83-14.75 3.48-15.71 4.13-16.67 4.72-17.61 5.32-18.55 5.8-19.3 6.27-20.04 6.42-20.26L6.42-20.26 6.98-26.15Q6.98-26.2 7.03-26.88 7.08-27.56 7.15-28.5 7.23-29.44 7.31-30.44 7.4-31.45 7.47-32.15L7.47-32.15Q7.52-33.01 7.6-33.35 7.69-33.69 8.18-33.81L8.18-33.81 16.48-35.84Q16.8-35.94 17.14-35.94L17.14-35.94Q17.48-35.94 17.6-35.73 17.72-35.52 17.72-34.89L17.72-34.89Q17.55-33.13 17.46-31.69 17.36-30.25 17.25-29 17.14-27.76 17.02-26.64 16.89-25.51 16.67-24.34L16.67-24.34 16.19-20.56 25.05-20.65Q25.27-23.9 25.54-26.17 25.81-28.44 25.88-29.76L25.88-29.76Q25.95-31.01 25.98-31.54 26-32.08 26-32.15Z" opacity="1" transform="matrix(1,0,0,1,0,0)" fill="#7983c2" class="wordmark-text-0" data-fill-palette-color="primary" id="text-0"></path></svg></g></svg></g><g transform="matrix(1,0,0,1,0,204.99159414240003)"><svg viewBox="0 0 163.91258351719665 11.739035279438639" height="11.739035279438639" width="163.91258351719665"><g transform="matrix(1,0,0,1,0,0)"><svg width="163.91258351719665" viewBox="1.9 -37.55 698.85 50.05" height="11.739035279438639" data-palette-color="#3adecf"><path d="M4.55-33.95L1.9-34.25 1.95-35 8.55-35 20.5-9.65 32.25-35 38.85-35Q38.85-34.9 38.9-34.65 38.95-34.4 38.9-34.25L38.9-34.25 36.25-33.95Q35.75-33.9 35.65-33.3L35.65-33.3 35.65-0.95 39.35-0.75Q39.35-0.7 39.3 0L39.3 0 29.25 0.05 29.3-0.65 31.9-1Q32.4-1.05 32.5-1.6L32.5-1.6 32.5-33.2 21.1-8.55 20.1-6.55 18.95-6.55 6.3-33.25 6.3-1.05 12-0.75Q12-0.7 11.95 0L11.95 0 1.9 0.05 1.95-0.65 4.55-1Q5.05-1.05 5.15-1.65L5.15-1.65 5.15-33.3Q5.05-33.9 4.55-33.95L4.55-33.95ZM57.1-1.9L57.1-1.9 56.95-1.9Q52.45 0.2 48.2 0.2L48.2 0.2Q41.55 0.2 41.15-5.05L41.15-5.05Q41.1-5.4 41.1-5.7L41.1-5.7Q41.1-9.55 46.15-10.85L46.15-10.85Q49.15-11.5 56.95-12.4L56.95-12.4 56.95-16.8Q56.95-18.9 56.45-20.4 55.95-21.9 55.35-22.63 54.75-23.35 53.8-23.75L53.8-23.75Q52.6-24.25 51.13-24.25 49.65-24.25 47.75-23.5L47.75-23.5Q45-22.35 42.85-20.6L42.85-20.6 42.65-16.7 41.7-16.45 41.7-22.5 42.2-22.7Q46.1-24.4 48.15-24.75 50.2-25.1 51.15-25.13 52.1-25.15 52.98-25.1 53.85-25.05 55.25-24.65 56.65-24.25 57.68-23.53 58.7-22.8 59.45-21.35 60.2-19.9 60.2-17.9L60.2-17.9 60.2-2.6Q60.2-1.05 61-1.05L61-1.05 64.05-0.9 64-0.15Q61.2 0.25 59 0.25L59 0.25Q58.4 0.2 57.75-0.38 57.1-0.95 57.1-1.9ZM49.1-0.6L49.1-0.6Q52.8-0.6 56.95-3.2L56.95-3.2 56.95-11.45Q49.45-11.2 47.53-10.58 45.6-9.95 44.88-8.63 44.15-7.3 44.15-6L44.15-6Q44.15-5.75 44.15-5.5L44.15-5.5Q44.3-2.9 45.7-1.75 47.1-0.6 49.1-0.6ZM80.95 12.45L70.4 12.5 70.3 11.8 74.95 11.2Q75.3 11.15 75.4 10.5L75.4 10.5 77.05 0 75.4 0 67.05-23.25 67-23.3Q66.75-23.9 66.2-24L66.2-24 63.95-24.2Q63.9-24.5 63.9-24.95L63.9-24.95 74.4-25Q74.4-24.95 74.45-24.25L74.45-24.25 70.55-23.95 77.95-1.3 87.25-23.3Q87.4-23.6 87.08-23.8 86.75-24 86.4-24.05L86.4-24.05 84.2-24.2Q84.15-24.5 84.15-24.95L84.15-24.95 93.3-25Q93.3-24.95 93.35-24.25L93.35-24.25 88.9-23.8 78.4 0 76.5 11.45 80.85 11.7Q80.95 12.4 80.95 12.45L80.95 12.45ZM127.5-1.9L127.5-1.9 127.35-1.9Q122.85 0.2 118.6 0.2L118.6 0.2Q111.95 0.2 111.55-5.05L111.55-5.05Q111.5-5.4 111.5-5.7L111.5-5.7Q111.5-9.55 116.55-10.85L116.55-10.85Q119.55-11.5 127.35-12.4L127.35-12.4 127.35-16.8Q127.35-18.9 126.85-20.4 126.35-21.9 125.75-22.63 125.15-23.35 124.2-23.75L124.2-23.75Q123-24.25 121.53-24.25 120.05-24.25 118.15-23.5L118.15-23.5Q115.4-22.35 113.25-20.6L113.25-20.6 113.05-16.7 112.1-16.45 112.1-22.5 112.6-22.7Q116.5-24.4 118.55-24.75 120.6-25.1 121.55-25.13 122.5-25.15 123.38-25.1 124.25-25.05 125.65-24.65 127.05-24.25 128.08-23.53 129.1-22.8 129.85-21.35 130.6-19.9 130.6-17.9L130.6-17.9 130.6-2.6Q130.6-1.05 131.4-1.05L131.4-1.05 134.45-0.9 134.4-0.15Q131.6 0.25 129.4 0.25L129.4 0.25Q128.8 0.2 128.15-0.38 127.5-0.95 127.5-1.9ZM119.5-0.6L119.5-0.6Q123.2-0.6 127.35-3.2L127.35-3.2 127.35-11.45Q119.85-11.2 117.93-10.58 116-9.95 115.28-8.63 114.55-7.3 114.55-6L114.55-6Q114.55-5.75 114.55-5.5L114.55-5.5Q114.7-2.9 116.1-1.75 117.5-0.6 119.5-0.6ZM146.75 0L136.7 0.05 136.75-0.65 139.35-1Q139.7-1.05 139.8-1.5L139.8-1.5 139.8-35.7Q139.8-36.25 139.5-36.25L139.5-36.25 136.45-36.35 136.5-37.05Q139.65-37.5 140.83-37.5 142-37.5 142.53-36.85 143.05-36.2 143.05-35.45L143.05-35.45 143.05-1 146.8-0.75Q146.8-0.7 146.75 0L146.75 0ZM160.1 0L150.05 0.05 150.1-0.65 152.7-1Q153.05-1.05 153.15-1.5L153.15-1.5 153.15-35.7Q153.15-36.25 152.85-36.25L152.85-36.25 149.8-36.35 149.85-37.05Q153-37.5 154.18-37.5 155.35-37.5 155.88-36.85 156.4-36.2 156.4-35.45L156.4-35.45 156.4-1 160.15-0.75Q160.15-0.7 160.1 0L160.1 0ZM190.5-0.95L190.5-0.95 192.45-1.05 192.6-0.55Q192.55-0.55 191.9-0.4L191.9-0.4Q190.4-0.05 188.55-0.05L188.55-0.05Q186.85-0.15 185.45-0.63 184.05-1.1 182.85-2.63 181.65-4.15 181.65-6.55L181.65-6.55 181.65-24.1 179.1-24.1 179.5-24.5 181.7-24.95 182.1-29.75 184.9-30 184.9-25 190.95-25 190.95-24.1 184.9-24.1 184.9-7.4Q184.9-3.6 186.5-2.27 188.1-0.95 190.5-0.95ZM201.65-35.45L201.65-35.45 201.65-21.9Q208.2-26.4 213.5-24.7L213.5-24.7Q214.7-24.35 215.57-23.68 216.45-23 217.1-21.65 217.75-20.3 217.75-18.4L217.75-18.4 217.75-1 221.5-0.75Q221.5-0.7 221.45 0L221.45 0 211.45 0.05Q211.45-0.4 211.5-0.65L211.5-0.65 214.1-1Q214.4-1 214.5-1.45L214.5-1.45 214.5-17.1Q214.5-19.05 213.97-20.48 213.45-21.9 212.75-22.55 212.05-23.2 211.1-23.55L211.1-23.55Q209.8-24.05 208.8-23.95L208.8-23.95Q205.55-23.85 201.65-21.3L201.65-21.3 201.65-1 205.4-0.75Q205.4-0.7 205.35 0L205.35 0 195.35 0.05Q195.35-0.4 195.4-0.65L195.4-0.65 198-1Q198.4-1.05 198.4-1.7L198.4-1.7 198.4-35.7Q198.4-36.25 198.1-36.25L198.1-36.25 195.1-36.35 195.15-37.05Q197.85-37.5 199.25-37.5 200.65-37.5 201.15-36.85 201.65-36.2 201.65-35.45ZM226-11.5L226-11.5Q226-0.7 234.4-0.7L234.4-0.7Q236.6-0.7 239.1-1.18 241.6-1.65 242.3-2.05L242.3-2.05 242.65-1.55Q241.5-0.8 238.88-0.3 236.25 0.2 234.07 0.2 231.9 0.2 230.18-0.25 228.45-0.7 226.65-1.85 224.85-3 223.8-5.45 222.75-7.9 222.75-11.45L222.75-11.45Q222.75-18.05 226.15-21.55L226.15-21.55Q229.7-25.2 234.4-25.2 239.1-25.2 241.57-22.6 244.05-20 244.05-15.3L244.05-15.3Q244.05-14.3 243.9-13.15L243.9-13.15 226.05-13.15Q226-12.6 226-11.5ZM241.1-15.65L241.1-15.65Q241.1-19.4 239.45-21.78 237.8-24.15 234.95-24.15L234.95-24.15Q231.25-24.15 228.7-20.9L228.7-20.9Q226.65-18.35 226.15-14.1L226.15-14.1 241.05-14.1Q241.1-14.65 241.1-15.65ZM269.85-35.45L269.85-35.45 269.85-23Q272.85-25.45 276.55-25.45L276.55-25.45Q279.95-25.45 282.95-23.35L282.95-23.35Q284.55-22.2 285.52-19.75 286.5-17.3 286.5-13.8L286.5-13.8Q286.5-7.15 283.2-3.8L283.2-3.8Q279.45 0 273.7 0L273.7 0Q271.55 0 269.43-0.35 267.3-0.7 266.6-1.15L266.6-1.15 266.6-35.85Q266.5-36.25 266.3-36.25L266.3-36.25 263.25-36.35 263.3-37.05Q266.45-37.5 267.63-37.5 268.8-37.5 269.32-36.85 269.85-36.2 269.85-35.45ZM269.85-22.05L269.85-22.05 269.85-0.9Q271.2-0.45 273-0.45L273-0.45Q277.9-0.45 280.57-3.9 283.25-7.35 283.25-13.55L283.25-13.55Q283.25-20.35 280.55-22.7L280.55-22.7Q278.45-24.55 275.7-24.55 272.95-24.55 269.85-22.05ZM293.75-11.5L293.75-11.5Q293.75-0.7 302.15-0.7L302.15-0.7Q304.35-0.7 306.85-1.18 309.35-1.65 310.05-2.05L310.05-2.05 310.4-1.55Q309.25-0.8 306.63-0.3 304 0.2 301.82 0.2 299.65 0.2 297.93-0.25 296.2-0.7 294.4-1.85 292.6-3 291.55-5.45 290.5-7.9 290.5-11.45L290.5-11.45Q290.5-18.05 293.9-21.55L293.9-21.55Q297.45-25.2 302.15-25.2 306.85-25.2 309.32-22.6 311.8-20 311.8-15.3L311.8-15.3Q311.8-14.3 311.65-13.15L311.65-13.15 293.8-13.15Q293.75-12.6 293.75-11.5ZM308.85-15.65L308.85-15.65Q308.85-19.4 307.2-21.78 305.55-24.15 302.7-24.15L302.7-24.15Q299-24.15 296.45-20.9L296.45-20.9Q294.4-18.35 293.9-14.1L293.9-14.1 308.8-14.1Q308.85-14.65 308.85-15.65ZM331.55-1.9L331.55-1.9 331.4-1.9Q326.9 0.2 322.65 0.2L322.65 0.2Q316 0.2 315.6-5.05L315.6-5.05Q315.55-5.4 315.55-5.7L315.55-5.7Q315.55-9.55 320.6-10.85L320.6-10.85Q323.6-11.5 331.4-12.4L331.4-12.4 331.4-16.8Q331.4-18.9 330.9-20.4 330.4-21.9 329.8-22.63 329.2-23.35 328.25-23.75L328.25-23.75Q327.05-24.25 325.57-24.25 324.1-24.25 322.2-23.5L322.2-23.5Q319.45-22.35 317.3-20.6L317.3-20.6 317.1-16.7 316.15-16.45 316.15-22.5 316.65-22.7Q320.55-24.4 322.6-24.75 324.65-25.1 325.6-25.13 326.55-25.15 327.43-25.1 328.3-25.05 329.7-24.65 331.1-24.25 332.13-23.53 333.15-22.8 333.9-21.35 334.65-19.9 334.65-17.9L334.65-17.9 334.65-2.6Q334.65-1.05 335.45-1.05L335.45-1.05 338.5-0.9 338.45-0.15Q335.65 0.25 333.45 0.25L333.45 0.25Q332.85 0.2 332.2-0.38 331.55-0.95 331.55-1.9ZM323.55-0.6L323.55-0.6Q327.25-0.6 331.4-3.2L331.4-3.2 331.4-11.45Q323.9-11.2 321.98-10.58 320.05-9.95 319.32-8.63 318.6-7.3 318.6-6L318.6-6Q318.6-5.75 318.6-5.5L318.6-5.5Q318.75-2.9 320.15-1.75 321.55-0.6 323.55-0.6ZM343.15-23.95L340.55-24.2 340.5-24.95 347.25-25 347.25-7.6Q347.25-5.65 347.8-4.23 348.35-2.8 349.02-2.15 349.7-1.5 350.6-1.15L350.6-1.15Q352-0.65 352.95-0.75L352.95-0.75Q356-0.8 359.9-3.9L359.9-3.9 359.9-23.25Q359.7-23.85 359.05-23.95L359.05-23.95 356.45-24.2Q356.4-24.5 356.4-24.95L356.4-24.95 363.15-25 363.15-2.3Q363.25-1.05 363.95-1.05L363.95-1.05 366.95-0.9 366.9-0.15Q364.5 0.25 361.9 0.25L361.9 0.25Q361.3 0.2 360.6-0.43 359.9-1.05 359.9-2L359.9-2 359.9-2.9Q355.35 0.15 351.3 0.15L351.3 0.15Q349.6 0.15 347.3-0.7L347.3-0.7Q345.8-1.25 344.9-2.78 344-4.3 344-6.6L344-6.6 344-23.2Q344-23.45 343.73-23.68 343.45-23.9 343.15-23.95L343.15-23.95ZM380.35-0.95L380.35-0.95 382.3-1.05 382.45-0.55Q382.4-0.55 381.75-0.4L381.75-0.4Q380.25-0.05 378.4-0.05L378.4-0.05Q376.7-0.15 375.3-0.63 373.9-1.1 372.7-2.63 371.5-4.15 371.5-6.55L371.5-6.55 371.5-24.1 368.95-24.1 369.35-24.5 371.55-24.95 371.95-29.75 374.75-30 374.75-25 380.8-25 380.8-24.1 374.75-24.1 374.75-7.4Q374.75-3.6 376.35-2.27 377.95-0.95 380.35-0.95ZM391.5-22.95L391.5-22.95 391.5-1 395.25-0.75Q395.25-0.7 395.2 0L395.2 0 385.2 0.05Q385.2-0.4 385.25-0.65L385.25-0.65 387.85-1Q388.15-1 388.25-1.45L388.25-1.45 388.25-23.4Q388.15-23.75 387.95-23.75L387.95-23.75 384.95-23.85 385-24.55Q387.7-25 389.1-25 390.5-25 391-24.35 391.5-23.7 391.5-22.95ZM389.8-31.7Q388.8-31.7 388.25-32.33 387.7-32.95 387.7-33.98 387.7-35 388.27-35.63 388.85-36.25 389.85-36.25 390.85-36.25 391.47-35.63 392.1-35 392.1-33.93 392.1-32.85 391.45-32.27 390.8-31.7 389.8-31.7ZM408.3 0L397.75 0.05 397.8-0.65 400.4-1Q400.85-1.05 400.85-1.7L400.85-1.7 400.85-24.1 398.3-24.1 398.7-24.5 400.85-24.95 400.85-31.05Q400.85-34.5 403.1-36.02 405.35-37.55 408.35-37.55L408.35-37.55Q410.35-37.55 411.75-37L411.75-37 411.6-36.65Q410.4-36.8 409.52-36.8 408.65-36.8 407.82-36.55 407-36.3 406.1-35.65L406.1-35.65Q404.1-34.2 404.1-29.9L404.1-29.9 404.1-25 410.15-25 410.15-24.1 404.1-24.1 404.1-1 408.35-0.75Q408.35-0.7 408.3 0L408.3 0ZM416.9-23.95L414.3-24.2 414.25-24.95 421-25 421-7.6Q421-5.65 421.55-4.23 422.1-2.8 422.77-2.15 423.45-1.5 424.35-1.15L424.35-1.15Q425.75-0.65 426.7-0.75L426.7-0.75Q429.75-0.8 433.65-3.9L433.65-3.9 433.65-23.25Q433.45-23.85 432.8-23.95L432.8-23.95 430.2-24.2Q430.15-24.5 430.15-24.95L430.15-24.95 436.9-25 436.9-2.3Q437-1.05 437.7-1.05L437.7-1.05 440.7-0.9 440.65-0.15Q438.25 0.25 435.65 0.25L435.65 0.25Q435.05 0.2 434.35-0.43 433.65-1.05 433.65-2L433.65-2 433.65-2.9Q429.1 0.15 425.05 0.15L425.05 0.15Q423.35 0.15 421.05-0.7L421.05-0.7Q419.55-1.25 418.65-2.78 417.75-4.3 417.75-6.6L417.75-6.6 417.75-23.2Q417.75-23.45 417.48-23.68 417.2-23.9 416.9-23.95L416.9-23.95ZM455 0L444.95 0.05 445-0.65 447.6-1Q447.95-1.05 448.05-1.5L448.05-1.5 448.05-35.7Q448.05-36.25 447.75-36.25L447.75-36.25 444.7-36.35 444.75-37.05Q447.9-37.5 449.07-37.5 450.25-37.5 450.77-36.85 451.3-36.2 451.3-35.45L451.3-35.45 451.3-1 455.05-0.75Q455.05-0.7 455 0L455 0ZM481.1-35.45L481.1-35.45 481.1-23Q484.1-25.45 487.8-25.45L487.8-25.45Q491.2-25.45 494.2-23.35L494.2-23.35Q495.8-22.2 496.77-19.75 497.75-17.3 497.75-13.8L497.75-13.8Q497.75-7.15 494.45-3.8L494.45-3.8Q490.7 0 484.95 0L484.95 0Q482.8 0 480.68-0.35 478.55-0.7 477.85-1.15L477.85-1.15 477.85-35.85Q477.75-36.25 477.55-36.25L477.55-36.25 474.5-36.35 474.55-37.05Q477.7-37.5 478.88-37.5 480.05-37.5 480.57-36.85 481.1-36.2 481.1-35.45ZM481.1-22.05L481.1-22.05 481.1-0.9Q482.45-0.45 484.25-0.45L484.25-0.45Q489.15-0.45 491.82-3.9 494.5-7.35 494.5-13.55L494.5-13.55Q494.5-20.35 491.8-22.7L491.8-22.7Q489.7-24.55 486.95-24.55 484.2-24.55 481.1-22.05ZM505-11.5L505-11.5Q505-0.7 513.4-0.7L513.4-0.7Q515.6-0.7 518.1-1.18 520.6-1.65 521.3-2.05L521.3-2.05 521.65-1.55Q520.5-0.8 517.88-0.3 515.25 0.2 513.08 0.2 510.9 0.2 509.18-0.25 507.45-0.7 505.65-1.85 503.85-3 502.8-5.45 501.75-7.9 501.75-11.45L501.75-11.45Q501.75-18.05 505.15-21.55L505.15-21.55Q508.7-25.2 513.4-25.2 518.1-25.2 520.58-22.6 523.05-20 523.05-15.3L523.05-15.3Q523.05-14.3 522.9-13.15L522.9-13.15 505.05-13.15Q505-12.6 505-11.5ZM520.1-15.65L520.1-15.65Q520.1-19.4 518.45-21.78 516.8-24.15 513.95-24.15L513.95-24.15Q510.25-24.15 507.7-20.9L507.7-20.9Q505.65-18.35 505.15-14.1L505.15-14.1 520.05-14.1Q520.1-14.65 520.1-15.65ZM548.85-35.45L548.85-35.45 548.85-23Q551.85-25.45 555.55-25.45L555.55-25.45Q558.95-25.45 561.95-23.35L561.95-23.35Q563.55-22.2 564.52-19.75 565.5-17.3 565.5-13.8L565.5-13.8Q565.5-7.15 562.2-3.8L562.2-3.8Q558.45 0 552.7 0L552.7 0Q550.55 0 548.42-0.35 546.3-0.7 545.6-1.15L545.6-1.15 545.6-35.85Q545.5-36.25 545.3-36.25L545.3-36.25 542.25-36.35 542.3-37.05Q545.45-37.5 546.63-37.5 547.8-37.5 548.33-36.85 548.85-36.2 548.85-35.45ZM548.85-22.05L548.85-22.05 548.85-0.9Q550.2-0.45 552-0.45L552-0.45Q556.9-0.45 559.58-3.9 562.25-7.35 562.25-13.55L562.25-13.55Q562.25-20.35 559.55-22.7L559.55-22.7Q557.45-24.55 554.7-24.55 551.95-24.55 548.85-22.05ZM579.55 0L569.5 0.05 569.55-0.65 572.15-1Q572.5-1.05 572.6-1.5L572.6-1.5 572.6-35.7Q572.6-36.25 572.3-36.25L572.3-36.25 569.25-36.35 569.3-37.05Q572.45-37.5 573.63-37.5 574.8-37.5 575.33-36.85 575.85-36.2 575.85-35.45L575.85-35.45 575.85-1 579.6-0.75Q579.6-0.7 579.55 0L579.55 0ZM587.1-11.5L587.1-11.5Q587.1-0.7 595.5-0.7L595.5-0.7Q597.7-0.7 600.2-1.18 602.7-1.65 603.4-2.05L603.4-2.05 603.75-1.55Q602.6-0.8 599.98-0.3 597.35 0.2 595.18 0.2 593 0.2 591.27-0.25 589.55-0.7 587.75-1.85 585.95-3 584.9-5.45 583.85-7.9 583.85-11.45L583.85-11.45Q583.85-18.05 587.25-21.55L587.25-21.55Q590.8-25.2 595.5-25.2 600.2-25.2 602.68-22.6 605.15-20 605.15-15.3L605.15-15.3Q605.15-14.3 605-13.15L605-13.15 587.15-13.15Q587.1-12.6 587.1-11.5ZM602.2-15.65L602.2-15.65Q602.2-19.4 600.55-21.78 598.9-24.15 596.05-24.15L596.05-24.15Q592.35-24.15 589.8-20.9L589.8-20.9Q587.75-18.35 587.25-14.1L587.25-14.1 602.15-14.1Q602.2-14.65 602.2-15.65ZM616-0.6L616-0.6Q616.3-0.6 616.6-0.65L616.6-0.65Q619.2-0.7 620.95-2.27 622.7-3.85 622.7-6.9L622.7-6.9Q622.7-9.9 618-11.25L618-11.25Q616.05-11.8 614.1-12.45 612.15-13.1 610.77-14.5 609.4-15.9 609.4-18.15L609.4-18.15Q609.4-21.35 611.85-23.28 614.3-25.2 618.05-25.2L618.05-25.2Q620.85-25.2 623.7-24.2L623.7-24.2 624.6-23.85 624.6-18.1 623.65-17.75 623.45-22Q620.55-24.3 618.6-24.3L618.6-24.3Q615.85-24.3 614.25-22.68 612.65-21.05 612.65-18.35L612.65-18.35Q612.65-16.8 614.02-15.85 615.4-14.9 617.35-14.35 619.3-13.8 621.25-13.13 623.2-12.45 624.57-10.93 625.95-9.4 625.95-6.95L625.95-6.95Q625.95-3.65 623.48-1.73 621 0.2 616.45 0.2 611.9 0.2 608.9-1.95L608.9-1.95 608.9-7.7 609.8-8.05 610.05-3.8Q610.75-2.5 612.57-1.55 614.4-0.6 616-0.6ZM637.05-0.6L637.05-0.6Q637.35-0.6 637.65-0.65L637.65-0.65Q640.25-0.7 642-2.27 643.75-3.85 643.75-6.9L643.75-6.9Q643.75-9.9 639.05-11.25L639.05-11.25Q637.1-11.8 635.15-12.45 633.2-13.1 631.82-14.5 630.45-15.9 630.45-18.15L630.45-18.15Q630.45-21.35 632.9-23.28 635.35-25.2 639.1-25.2L639.1-25.2Q641.9-25.2 644.75-24.2L644.75-24.2 645.65-23.85 645.65-18.1 644.7-17.75 644.5-22Q641.6-24.3 639.65-24.3L639.65-24.3Q636.9-24.3 635.3-22.68 633.7-21.05 633.7-18.35L633.7-18.35Q633.7-16.8 635.07-15.85 636.45-14.9 638.4-14.35 640.35-13.8 642.3-13.13 644.25-12.45 645.62-10.93 647-9.4 647-6.95L647-6.95Q647-3.65 644.52-1.73 642.05 0.2 637.5 0.2 632.95 0.2 629.95-1.95L629.95-1.95 629.95-7.7 630.85-8.05 631.1-3.8Q631.8-2.5 633.62-1.55 635.45-0.6 637.05-0.6ZM654.5-11.5L654.5-11.5Q654.5-0.7 662.9-0.7L662.9-0.7Q665.1-0.7 667.6-1.18 670.1-1.65 670.8-2.05L670.8-2.05 671.15-1.55Q670-0.8 667.37-0.3 664.75 0.2 662.57 0.2 660.4 0.2 658.67-0.25 656.95-0.7 655.15-1.85 653.35-3 652.3-5.45 651.25-7.9 651.25-11.45L651.25-11.45Q651.25-18.05 654.65-21.55L654.65-21.55Q658.2-25.2 662.9-25.2 667.6-25.2 670.07-22.6 672.55-20 672.55-15.3L672.55-15.3Q672.55-14.3 672.4-13.15L672.4-13.15 654.55-13.15Q654.5-12.6 654.5-11.5ZM669.6-15.65L669.6-15.65Q669.6-19.4 667.95-21.78 666.3-24.15 663.45-24.15L663.45-24.15Q659.75-24.15 657.2-20.9L657.2-20.9Q655.15-18.35 654.65-14.1L654.65-14.1 669.55-14.1Q669.6-14.65 669.6-15.65ZM696.95-35.45L696.95-35.45 696.95-2.6Q696.95-1.05 697.75-1.05L697.75-1.05 700.75-0.9 700.7-0.15Q698.3 0.25 695.7 0.25L695.7 0.25Q695.15 0.2 694.52-0.3 693.9-0.8 693.8-1.6L693.8-1.6Q690.95 0.2 687.2 0.2L687.2 0.2Q683.55 0.2 680.45-1.85L680.45-1.85Q678.7-3 677.62-5.48 676.55-7.95 676.55-11.5L676.55-11.5Q676.55-18.05 679.9-21.5L679.9-21.5Q683.45-25.2 688-25.2L688-25.2Q690.8-25.2 693.7-23.75L693.7-23.75 693.7-35.7Q693.7-36.25 693.4-36.25L693.4-36.25 690.35-36.35 690.4-37.05Q693.55-37.5 694.72-37.5 695.9-37.5 696.42-36.85 696.95-36.2 696.95-35.45ZM687.85-0.7L687.85-0.7Q690.9-0.7 693.7-2.05L693.7-2.05 693.7-22.95Q691.5-24.3 689.35-24.3L689.35-24.3Q685.05-24.3 682.42-21 679.8-17.7 679.8-11.55L679.8-11.55Q679.8-0.7 687.85-0.7Z" opacity="1" transform="matrix(1,0,0,1,0,0)" fill="#3adecf" class="slogan-text-1" data-fill-palette-color="secondary" id="text-1"></path></svg></g></svg></g></svg></g></svg></g><g></g></svg></g></svg></g></svg></g></svg></g><defs></defs></svg><rect width="320" height="360" fill="none" stroke="none" visibility="hidden"></rect></g></svg></g></svg>